<svg xmlns="http://www.w3.org/2000/svg" viewBox="0 0 320 220" role="img" aria-labelledby="title desc">
  <title id="title">Admins illustration</title>
  <desc id="desc">Administrative tools, secure controls, and connected settings.</desc>
  <defs>
    <linearGradient id="bg" x1="32" y1="18" x2="280" y2="204" gradientUnits="userSpaceOnUse">
      <stop stop-color="#FFEDD5"/>
      <stop offset=".55" stop-color="#FFF7ED"/>
      <stop offset="1" stop-color="#FEF3C7"/>
    </linearGradient>
    <linearGradient id="panel" x1="72" y1="56" x2="232" y2="169" gradientUnits="userSpaceOnUse">
      <stop stop-color="#F97316"/>
      <stop offset="1" stop-color="#F59E0B"/>
    </linearGradient>
    <filter id="shadow" x="-20%" y="-20%" width="140%" height="150%" color-interpolation-filters="sRGB">
      <feDropShadow dx="0" dy="12" stdDeviation="12" flood-color="#EA580C" flood-opacity=".18"/>
    </filter>
  </defs>
  <rect x="30" y="18" width="260" height="184" rx="38" fill="url(#bg)"/>
  <g filter="url(#shadow)">
    <rect x="72" y="54" width="158" height="118" rx="26" fill="#fff"/>
    <rect x="91" y="75" width="120" height="76" rx="18" fill="url(#panel)"/>
  </g>
  <g fill="#fff">
    <rect x="111" y="95" width="81" height="9" rx="5"/>
    <rect x="111" y="116" width="54" height="9" rx="5" opacity=".86"/>
    <circle cx="98" cy="99" r="5"/>
    <circle cx="98" cy="120" r="5" opacity=".86"/>
  </g>
  <g filter="url(#shadow)">
    <circle cx="232" cy="133" r="38" fill="#fff"/>
    <path d="M232 96l11 14 18 1-6 17 9 15-17 6-8 16-17-7-17 7-8-16-17-6 9-15-6-17 18-1z" fill="#0F172A" opacity=".12"/>
    <path d="M232 112l7 10 12 1-4 12 6 10-12 4-5 11-11-5-11 5-5-11-12-4 6-10-4-12 12-1z" fill="#EA580C"/>
    <circle cx="232" cy="136" r="10" fill="#fff"/>
  </g>
  <path d="M72 169c43 19 132 19 180 0" fill="none" stroke="#FDBA74" stroke-width="14" stroke-linecap="round" opacity=".7"/>
  <circle cx="67" cy="67" r="18" fill="#fff" filter="url(#shadow)"/>
  <path d="M58 68l7 7 13-16" fill="none" stroke="#F97316" stroke-width="5" stroke-linecap="round" stroke-linejoin="round"/>
  <circle cx="261" cy="62" r="8" fill="#FDE68A"/>
  <circle cx="58" cy="151" r="7" fill="#FDBA74"/>
</svg>
