<svg xmlns="http://www.w3.org/2000/svg" viewBox="0 0 320 220" role="img" aria-labelledby="title desc">
  <title id="title">All users illustration</title>
  <desc id="desc">A friendly dashboard scene with connected user profiles.</desc>
  <defs>
    <linearGradient id="bg" x1="26" y1="19" x2="279" y2="205" gradientUnits="userSpaceOnUse">
      <stop stop-color="#DBEAFE"/>
      <stop offset=".48" stop-color="#E0F2FE"/>
      <stop offset="1" stop-color="#F8FAFC"/>
    </linearGradient>
    <linearGradient id="screen" x1="71" y1="65" x2="233" y2="171" gradientUnits="userSpaceOnUse">
      <stop stop-color="#2563EB"/>
      <stop offset="1" stop-color="#14B8A6"/>
    </linearGradient>
    <filter id="shadow" x="-20%" y="-20%" width="140%" height="150%" color-interpolation-filters="sRGB">
      <feDropShadow dx="0" dy="12" stdDeviation="12" flood-color="#2563EB" flood-opacity=".18"/>
    </filter>
  </defs>
  <rect x="28" y="18" width="264" height="184" rx="38" fill="url(#bg)"/>
  <path d="M69 162c41 27 128 29 183-2" fill="none" stroke="#BFDBFE" stroke-width="18" stroke-linecap="round" opacity=".65"/>
  <g filter="url(#shadow)">
    <rect x="76" y="56" width="168" height="106" rx="24" fill="#fff"/>
    <rect x="92" y="74" width="136" height="70" rx="18" fill="url(#screen)"/>
    <rect x="124" y="164" width="72" height="12" rx="6" fill="#CBD5E1"/>
  </g>
  <g fill="#fff" opacity=".94">
    <rect x="108" y="91" width="39" height="8" rx="4"/>
    <rect x="108" y="106" width="83" height="8" rx="4"/>
    <rect x="108" y="121" width="60" height="8" rx="4"/>
  </g>
  <g>
    <circle cx="72" cy="73" r="28" fill="#fff" filter="url(#shadow)"/>
    <circle cx="72" cy="66" r="10" fill="#FBBF24"/>
    <path d="M51 91c4-14 37-14 42 0" fill="#2563EB"/>
    <circle cx="247" cy="82" r="28" fill="#fff" filter="url(#shadow)"/>
    <circle cx="247" cy="75" r="10" fill="#FB7185"/>
    <path d="M226 100c4-14 37-14 42 0" fill="#14B8A6"/>
    <circle cx="238" cy="158" r="26" fill="#fff" filter="url(#shadow)"/>
    <circle cx="238" cy="151" r="9" fill="#A78BFA"/>
    <path d="M219 175c4-13 34-13 38 0" fill="#7C3AED"/>
    <circle cx="89" cy="153" r="25" fill="#fff" filter="url(#shadow)"/>
    <circle cx="89" cy="146" r="9" fill="#38BDF8"/>
    <path d="M70 169c4-12 34-12 38 0" fill="#0F766E"/>
  </g>
  <path d="M104 83c-16-10-26-10-37-2M218 88c13-11 24-13 38-6M217 145c12 10 23 11 35 5M107 143c-13 9-25 10-36 4" fill="none" stroke="#60A5FA" stroke-width="5" stroke-linecap="round" opacity=".55"/>
  <circle cx="274" cy="47" r="9" fill="#FDE68A"/>
  <circle cx="49" cy="38" r="7" fill="#93C5FD"/>
  <circle cx="269" cy="180" r="6" fill="#99F6E4"/>
</svg>
