<svg xmlns="http://www.w3.org/2000/svg" viewBox="0 0 320 220" role="img" aria-labelledby="title desc">
  <title id="title">Students illustration</title>
  <desc id="desc">A cheerful student with books and learning stars.</desc>
  <defs>
    <linearGradient id="bg" x1="37" y1="18" x2="276" y2="204" gradientUnits="userSpaceOnUse">
      <stop stop-color="#D1FAE5"/>
      <stop offset=".55" stop-color="#ECFDF5"/>
      <stop offset="1" stop-color="#F0FDFA"/>
    </linearGradient>
    <linearGradient id="shirt" x1="118" y1="108" x2="212" y2="188" gradientUnits="userSpaceOnUse">
      <stop stop-color="#10B981"/>
      <stop offset="1" stop-color="#2563EB"/>
    </linearGradient>
    <filter id="shadow" x="-20%" y="-20%" width="140%" height="150%" color-interpolation-filters="sRGB">
      <feDropShadow dx="0" dy="12" stdDeviation="12" flood-color="#059669" flood-opacity=".18"/>
    </filter>
  </defs>
  <rect x="30" y="18" width="260" height="184" rx="38" fill="url(#bg)"/>
  <path d="M62 165c47 22 143 24 198 0" fill="none" stroke="#A7F3D0" stroke-width="18" stroke-linecap="round"/>
  <g filter="url(#shadow)">
    <rect x="57" y="122" width="84" height="48" rx="14" fill="#fff"/>
    <rect x="65" y="132" width="68" height="8" rx="4" fill="#FBBF24"/>
    <rect x="65" y="147" width="54" height="8" rx="4" fill="#60A5FA"/>
    <rect x="182" y="123" width="81" height="46" rx="14" fill="#fff"/>
    <rect x="193" y="133" width="58" height="8" rx="4" fill="#34D399"/>
    <rect x="193" y="148" width="44" height="8" rx="4" fill="#A78BFA"/>
  </g>
  <g filter="url(#shadow)">
    <path d="M105 181c7-42 102-42 109 0" fill="url(#shirt)"/>
    <circle cx="160" cy="86" r="47" fill="#FDE68A"/>
    <path d="M118 77c11-43 72-49 94-8-22 5-46 0-65-14-5 14-14 22-29 22z" fill="#172033"/>
    <circle cx="142" cy="91" r="5" fill="#172033"/>
    <circle cx="178" cy="91" r="5" fill="#172033"/>
    <path d="M145 110c10 10 22 10 32 0" fill="none" stroke="#172033" stroke-width="5" stroke-linecap="round"/>
    <path d="M119 178l28-28 14 16 15-16 28 28" fill="none" stroke="#fff" stroke-width="7" stroke-linecap="round" stroke-linejoin="round"/>
  </g>
  <path d="M75 72l7 14 16 2-12 11 3 16-14-8-14 8 3-16-12-11 16-2z" fill="#FBBF24"/>
  <path d="M247 58l5 11 12 2-9 8 2 12-10-6-10 6 2-12-9-8 12-2z" fill="#60A5FA"/>
  <circle cx="250" cy="144" r="7" fill="#34D399"/>
  <circle cx="69" cy="144" r="6" fill="#A7F3D0"/>
</svg>
