<svg xmlns="http://www.w3.org/2000/svg" viewBox="0 0 320 220" role="img" aria-labelledby="title desc">
  <title id="title">Super admins illustration</title>
  <desc id="desc">A secure platform command shield with analytics and access controls.</desc>
  <defs>
    <linearGradient id="bg" x1="33" y1="18" x2="282" y2="204" gradientUnits="userSpaceOnUse">
      <stop stop-color="#CCFBF1"/>
      <stop offset=".52" stop-color="#ECFEFF"/>
      <stop offset="1" stop-color="#E0F2FE"/>
    </linearGradient>
    <linearGradient id="shield" x1="116" y1="48" x2="206" y2="174" gradientUnits="userSpaceOnUse">
      <stop stop-color="#0891B2"/>
      <stop offset=".5" stop-color="#2563EB"/>
      <stop offset="1" stop-color="#7C3AED"/>
    </linearGradient>
    <filter id="shadow" x="-20%" y="-20%" width="140%" height="150%" color-interpolation-filters="sRGB">
      <feDropShadow dx="0" dy="12" stdDeviation="12" flood-color="#0891B2" flood-opacity=".2"/>
    </filter>
  </defs>
  <rect x="30" y="18" width="260" height="184" rx="38" fill="url(#bg)"/>
  <path d="M66 166c49 23 140 23 189-2" fill="none" stroke="#A5F3FC" stroke-width="18" stroke-linecap="round"/>
  <g filter="url(#shadow)">
    <path d="M160 43l76 25v49c0 48-31 76-76 94-45-18-76-46-76-94V68z" fill="#fff"/>
    <path d="M160 60l57 19v38c0 35-22 58-57 73-35-15-57-38-57-73V79z" fill="url(#shield)"/>
  </g>
  <path d="M134 119l17 17 38-49" fill="none" stroke="#fff" stroke-width="12" stroke-linecap="round" stroke-linejoin="round"/>
  <g filter="url(#shadow)">
    <rect x="55" y="75" width="62" height="54" rx="16" fill="#fff"/>
    <rect x="70" y="94" width="9" height="21" rx="5" fill="#14B8A6"/>
    <rect x="86" y="86" width="9" height="29" rx="5" fill="#60A5FA"/>
    <rect x="102" y="100" width="9" height="15" rx="5" fill="#A78BFA"/>
    <rect x="203" y="82" width="63" height="52" rx="16" fill="#fff"/>
    <circle cx="223" cy="108" r="9" fill="#22D3EE"/>
    <circle cx="245" cy="101" r="7" fill="#7C3AED"/>
    <path d="M219 123c9-10 25-13 36-5" fill="none" stroke="#CBD5E1" stroke-width="6" stroke-linecap="round"/>
  </g>
  <circle cx="260" cy="55" r="8" fill="#FDE68A"/>
  <circle cx="62" cy="157" r="7" fill="#99F6E4"/>
  <path d="M108 51c26-16 72-17 104 0" fill="none" stroke="#67E8F9" stroke-width="7" stroke-linecap="round"/>
</svg>
