<svg xmlns="http://www.w3.org/2000/svg" viewBox="0 0 320 220" role="img" aria-labelledby="title desc">
  <title id="title">Teachers illustration</title>
  <desc id="desc">A teacher presenting lessons beside a class board.</desc>
  <defs>
    <linearGradient id="bg" x1="34" y1="18" x2="283" y2="203" gradientUnits="userSpaceOnUse">
      <stop stop-color="#EDE9FE"/>
      <stop offset=".55" stop-color="#F5F3FF"/>
      <stop offset="1" stop-color="#EEF2FF"/>
    </linearGradient>
    <linearGradient id="board" x1="64" y1="58" x2="232" y2="157" gradientUnits="userSpaceOnUse">
      <stop stop-color="#7C3AED"/>
      <stop offset="1" stop-color="#2563EB"/>
    </linearGradient>
    <filter id="shadow" x="-20%" y="-20%" width="140%" height="150%" color-interpolation-filters="sRGB">
      <feDropShadow dx="0" dy="12" stdDeviation="12" flood-color="#7C3AED" flood-opacity=".18"/>
    </filter>
  </defs>
  <rect x="30" y="18" width="260" height="184" rx="38" fill="url(#bg)"/>
  <g filter="url(#shadow)">
    <rect x="62" y="53" width="169" height="109" rx="22" fill="#fff"/>
    <rect x="78" y="69" width="137" height="75" rx="16" fill="url(#board)"/>
  </g>
  <g stroke="#fff" stroke-width="6" stroke-linecap="round" opacity=".9">
    <path d="M99 93h70"/>
    <path d="M99 113h46"/>
    <path d="M99 133h86"/>
  </g>
  <g filter="url(#shadow)">
    <path d="M183 185c6-38 75-38 81 0" fill="#F59E0B"/>
    <circle cx="224" cy="105" r="35" fill="#FED7AA"/>
    <path d="M192 104c3-32 45-48 68-19-19 2-34-2-47-13-3 15-10 25-21 32z" fill="#4C1D95"/>
    <circle cx="211" cy="112" r="4" fill="#172033"/>
    <circle cx="238" cy="112" r="4" fill="#172033"/>
    <path d="M213 127c8 7 18 7 26 0" fill="none" stroke="#172033" stroke-width="4" stroke-linecap="round"/>
    <path d="M187 146l-30-19" fill="none" stroke="#F59E0B" stroke-width="12" stroke-linecap="round"/>
    <circle cx="153" cy="126" r="7" fill="#F59E0B"/>
  </g>
  <rect x="92" y="164" width="84" height="13" rx="7" fill="#C4B5FD"/>
  <circle cx="257" cy="54" r="8" fill="#FDE68A"/>
  <circle cx="57" cy="42" r="7" fill="#A78BFA"/>
  <path d="M52 176c20-20 47-20 67 0" fill="none" stroke="#C4B5FD" stroke-width="8" stroke-linecap="round"/>
</svg>
