<svg xmlns="http://www.w3.org/2000/svg" viewBox="0 0 160 160" role="img" aria-label="Module wizard illustration">
  <defs>
    <linearGradient id="a" x1="20" y1="18" x2="142" y2="140" gradientUnits="userSpaceOnUse">
      <stop stop-color="#DBEAFE"/>
      <stop offset="0.55" stop-color="#ECFDF5"/>
      <stop offset="1" stop-color="#FEF3C7"/>
    </linearGradient>
    <linearGradient id="b" x1="48" y1="38" x2="112" y2="122" gradientUnits="userSpaceOnUse">
      <stop stop-color="#2563EB"/>
      <stop offset="1" stop-color="#10B981"/>
    </linearGradient>
  </defs>
  <rect width="160" height="160" rx="38" fill="url(#a)"/>
  <rect x="34" y="34" width="92" height="104" rx="20" fill="#fff" stroke="#BFDBFE" stroke-width="3"/>
  <path d="M54 59h52M54 79h38M54 99h48" stroke="#94A3B8" stroke-width="6" stroke-linecap="round"/>
  <circle cx="118" cy="44" r="18" fill="url(#b)"/>
  <path d="m111 44 5 5 11-13" fill="none" stroke="#fff" stroke-width="5" stroke-linecap="round" stroke-linejoin="round"/>
  <path d="M37 120c23-4 38-15 45-33 8 21 21 32 41 35-21 5-34 16-41 34-7-19-22-31-45-36Z" fill="#FBBF24" opacity=".9"/>
</svg>
