<svg xmlns="http://www.w3.org/2000/svg" width="180" height="180" viewBox="0 0 180 180" role="img" aria-label="Daily bonus illustration">
  <defs>
    <linearGradient id="coin" x1="36" y1="28" x2="145" y2="152" gradientUnits="userSpaceOnUse">
      <stop stop-color="#FDE68A"/>
      <stop offset="1" stop-color="#F97316"/>
    </linearGradient>
    <linearGradient id="gift" x1="46" y1="70" x2="137" y2="152" gradientUnits="userSpaceOnUse">
      <stop stop-color="#2563EB"/>
      <stop offset="1" stop-color="#059669"/>
    </linearGradient>
  </defs>
  <rect width="180" height="180" rx="44" fill="#FFF7ED"/>
  <circle cx="90" cy="86" r="58" fill="url(#coin)" opacity="0.92"/>
  <circle cx="90" cy="86" r="43" fill="#FFFFFF" opacity="0.35"/>
  <path d="M90 50l10 22 24 3-17 17 4 24-21-12-21 12 4-24-17-17 24-3 10-22Z" fill="#FFFFFF"/>
  <rect x="44" y="100" width="92" height="48" rx="16" fill="url(#gift)"/>
  <rect x="84" y="100" width="12" height="48" rx="6" fill="#FFFFFF" opacity="0.9"/>
  <rect x="38" y="84" width="104" height="24" rx="12" fill="#1D4ED8"/>
  <path d="M86 84c-23-2-31-22-18-31 12-8 22 5 22 31" fill="none" stroke="#1D4ED8" stroke-width="9" stroke-linecap="round"/>
  <path d="M94 84c23-2 31-22 18-31-12-8-22 5-22 31" fill="none" stroke="#1D4ED8" stroke-width="9" stroke-linecap="round"/>
</svg>
